<svg xmlns="http://www.w3.org/2000/svg" xmlns:xlink="http://www.w3.org/1999/xlink" xmlns:svgjs="http://svgjs.com/svgjs" id="SvgjsSvg1001" version="1.1" viewBox="66.5 42.63 129.42 194.13"><defs id="SvgjsDefs1002"/><g id="SvgjsG1008"><svg xmlns="http://www.w3.org/2000/svg" version="1.0" viewBox="0 0 271 304" width="288" height="288"><g transform="matrix(.1 0 0 -.1 0 304)" fill="#610ee4" class="color000 svgShape"><path d="M1074 2536 c-201 -97 -329 -196 -409 -316 -71 -107 -87 -164 -82-290 7 -184 72 -301 295 -533 217 -226 283 -337 290 -487 5 -103 -7 -167 -53 -280 -19 -46 -32 -86 -30 -89 3 -2 26 13 52 35 305 245 439 470 406 682 -23 141 -86 254 -233 417 -153 170 -217 278 -246 416 -28 134 5 285 94 432 22 37 38 67 34 67 -4 0 -57 -24 -118 -54z" fill="#610ee4" class="color000 svgShape"/><path d="M1226 2500c-72-111-113-252-101-349 17-139 68-235 205-391 120-135 160-189 208-280 61-116 77-171 77-280 0-114-33-223-97-321-39-61-39-62-11-45 249 159 394 365 396 566 1 98-17 168-65 261-55 108-125 188-289 330-223 193-276 278-288 459l-6 95-29-45zM580 1604c-27-69-43-166-43-259-2-175 47-280 183-393 195-161 247-225 272-330 7-29 16-52 20-52 8 0 63 140 79 204 16 66 6 199-20 259-36 83-99 164-244 315-78 81-160 175-182 207-54 83-53 82-65 49z" fill="" class="color000 svgShape"/></g></svg></g></svg>